<?xml version="1.0" encoding="UTF-8" standalone="no"?>
<!-- Created with Inkscape (http://www.inkscape.org/) -->

<svg
   width="40.440834mm"
   height="13.655899mm"
   viewBox="0 0 40.440834 13.655899"
   version="1.1"
   id="svg1"
   inkscape:version="1.3.2 (091e20ef0f, 2023-11-25, custom)"
   sodipodi:docname="artifaktnd_logo.svg"
   xmlns:inkscape="http://www.inkscape.org/namespaces/inkscape"
   xmlns:sodipodi="http://sodipodi.sourceforge.net/DTD/sodipodi-0.dtd"
   xmlns="http://www.w3.org/2000/svg"
   xmlns:svg="http://www.w3.org/2000/svg">
  <sodipodi:namedview
     id="namedview1"
     pagecolor="#ffffff"
     bordercolor="#000000"
     borderopacity="0.25"
     inkscape:showpageshadow="false"
     inkscape:pageopacity="0.0"
     inkscape:pagecheckerboard="true"
     inkscape:deskcolor="#d1d1d1"
     inkscape:document-units="mm"
     showborder="false"
     borderlayer="false"
     inkscape:zoom="5.8709306"
     inkscape:cx="58.764108"
     inkscape:cy="6.5577338"
     inkscape:window-width="2560"
     inkscape:window-height="1371"
     inkscape:window-x="0"
     inkscape:window-y="0"
     inkscape:window-maximized="1"
     inkscape:current-layer="text35" />
  <defs
     id="defs1" />
  <g
     inkscape:label="Calque 1"
     inkscape:groupmode="layer"
     id="layer1"
     transform="translate(-50.15913,-100.08862)">
    <rect
       style="fill:#6f82c9;fill-opacity:1;stroke-width:2.11166"
       id="rect35"
       width="2.0742295"
       height="4.4883881"
       x="50.269463"
       y="109.21917"
       ry="0" />
    <g
       id="text35"
       style="font-weight:900;font-size:8.30966px;font-family:Roboto;-inkscape-font-specification:'Roboto, Heavy';letter-spacing:0px;fill:#f3f3f3;stroke-width:23.3138"
       aria-label="Artifaktnd.">
      <path
         d="m 53.973135,105.30244 h -1.951634 l -0.340826,1.10363 H 50.15913 l 2.166679,-5.90765 h 1.338959 l 2.182909,5.90765 h -1.529659 z m -1.610809,-1.09957 h 1.269983 l -0.63702,-2.04901 z m 6.508152,-0.94944 -0.450377,-0.0325 q -0.645135,0 -0.82772,0.40574 v 2.77936 H 56.22502 v -4.39017 h 1.282154 l 0.04463,0.56399 q 0.344884,-0.64513 0.961616,-0.64513 0.219103,0 0.381401,0.0487 z m 2.288402,-2.32898 v 1.09145 h 0.722226 v 0.94945 H 61.15888 v 2.00844 q 0,0.2475 0.08926,0.34488 0.08926,0.0974 0.352998,0.0974 0.202873,0 0.340826,-0.0243 v 0.97785 q -0.369228,0.11767 -0.770916,0.11767 -0.705996,0 -1.042764,-0.33272 -0.336769,-0.33271 -0.336769,-1.0103 v -2.17885 h -0.559928 v -0.94945 h 0.559928 v -1.09145 z m 2.702263,5.48162 h -1.371419 v -4.39017 h 1.371419 z m -1.452568,-5.52219 q 0,-0.29214 0.210988,-0.47878 0.210987,-0.18665 0.547756,-0.18665 0.336768,0 0.547756,0.18665 0.210987,0.18664 0.210987,0.47878 0,0.29213 -0.210987,0.47878 -0.210988,0.18664 -0.547756,0.18664 -0.336769,0 -0.547756,-0.18664 -0.210988,-0.18665 -0.210988,-0.47878 z m 2.59677,5.52219 v -3.44072 h -0.63702 v -0.94945 h 0.63702 v -0.34894 q 0,-0.75062 0.442262,-1.16448 0.442262,-0.41386 1.24158,-0.41386 0.292136,0 0.641077,0.0852 l 0.0041,1.00625 q -0.125781,-0.0365 -0.336769,-0.0365 -0.62079,0 -0.62079,0.53559 v 0.33676 h 0.856122 v 0.94945 h -0.856122 v 3.44072 z m 5.181364,0 q -0.07303,-0.1339 -0.129839,-0.39358 -0.377343,0.47473 -1.054937,0.47473 -0.62079,0 -1.054937,-0.37329 -0.434148,-0.37734 -0.434148,-0.94539 0,-0.71411 0.527469,-1.07928 0.527469,-0.36517 1.533717,-0.36517 h 0.421975 v -0.23127 q 0,-0.60456 -0.523412,-0.60456 -0.486894,0 -0.486894,0.47878 h -1.367361 q 0,-0.63702 0.539641,-1.03465 0.543699,-0.39763 1.383591,-0.39763 0.839892,0 1.326787,0.4098 0.486894,0.4098 0.499066,1.12391 v 1.94352 q 0.0081,0.60456 0.186643,0.9251 v 0.069 z m -0.856122,-0.89264 q 0.255619,0 0.421974,-0.10955 0.170413,-0.10955 0.243448,-0.24751 v -0.70194 h -0.397631 q -0.714111,0 -0.714111,0.64108 0,0.18664 0.125781,0.30431 0.125781,0.11361 0.320539,0.11361 z m 4.556518,-0.74252 -0.385458,0.38546 v 1.2497 h -1.367361 v -6.23631 h 1.367361 v 3.31088 l 0.137953,-0.18258 1.030593,-1.28216 h 1.63921 l -1.537774,1.80557 1.63921,2.5846 h -1.566176 z m 4.373933,-3.84646 v 1.09145 h 0.722226 v 0.94945 h -0.722226 v 2.00844 q 0,0.2475 0.08926,0.34488 0.08926,0.0974 0.352998,0.0974 0.202872,0 0.340826,-0.0243 v 0.97785 q -0.369228,0.11767 -0.770916,0.11767 -0.705996,0 -1.042765,-0.33272 -0.336768,-0.33271 -0.336768,-1.0103 v -2.17885 h -0.559929 v -0.94945 h 0.559929 v -1.09145 z"
         id="path1" />
      <path
         style="fill:#b3b3b3"
         d="m 80.776658,102.0159 0.04463,0.5153 q 0.454434,-0.59644 1.253752,-0.59644 0.685709,0 1.022478,0.4098 0.340826,0.4098 0.352998,1.23346 v 2.82805 h -1.371419 v -2.77124 q 0,-0.33271 -0.133895,-0.4869 -0.133896,-0.15824 -0.486895,-0.15824 -0.401687,0 -0.596445,0.31648 v 3.0999 h -1.367361 v -4.39017 z m 3.258132,2.16263 q 0,-1.04277 0.450377,-1.64327 0.450378,-0.6005 1.25781,-0.6005 0.588331,0 0.990018,0.46255 v -2.22349 h 1.371419 v 6.23225 h -1.229408 l -0.06898,-0.47067 q -0.421975,0.55182 -1.071168,0.55182 -0.783088,0 -1.24158,-0.60051 -0.458492,-0.6005 -0.458492,-1.70818 z m 1.367361,0.0852 q 0,1.16855 0.681652,1.16855 0.454435,0 0.649192,-0.3814 v -1.67167 q -0.186642,-0.38952 -0.641077,-0.38952 -0.632962,0 -0.685709,1.02248 z"
         id="path2" />
      <path
         d="m 89.727394,105.07928 q 0.324596,0 0.539641,0.19476 0.215044,0.1907 0.215044,0.49095 0,0.30025 -0.215044,0.49501 -0.215045,0.1907 -0.539641,0.1907 -0.328654,0 -0.543699,-0.19476 -0.210987,-0.19476 -0.210987,-0.49095 0,-0.29619 0.210987,-0.49095 0.215045,-0.19476 0.543699,-0.19476 z"
         id="path3" />
    </g>
    <rect
       style="fill:#6f82c9;fill-opacity:1;stroke-width:2.11166"
       id="rect36"
       width="2.0742295"
       height="4.4883881"
       x="53.002022"
       y="109.21917"
       ry="0" />
    <rect
       style="fill:#6f82c9;fill-opacity:1;stroke-width:2.11166"
       id="rect37"
       width="2.0742295"
       height="4.4883881"
       x="55.734657"
       y="109.25613"
       ry="0" />
    <rect
       style="fill:#6f82c9;fill-opacity:1;stroke-width:2.11166"
       id="rect38"
       width="2.0742295"
       height="4.4883881"
       x="58.467216"
       y="109.21917"
       ry="0" />
    <rect
       style="fill:#6f82c9;fill-opacity:1;stroke-width:2.11166"
       id="rect39"
       width="2.0742295"
       height="4.4883881"
       x="61.199837"
       y="109.21917"
       ry="0" />
    <rect
       style="fill:#6f82c9;fill-opacity:1;stroke-width:2.11166"
       id="rect40"
       width="2.0742295"
       height="4.4883881"
       x="63.932396"
       y="109.25613"
       ry="0" />
    <rect
       style="fill:#6f82c9;fill-opacity:1;stroke-width:2.11166"
       id="rect41"
       width="2.0742295"
       height="4.4883881"
       x="66.664955"
       y="109.21917"
       ry="0" />
    <rect
       style="fill:#6f82c9;fill-opacity:1;stroke-width:2.11166"
       id="rect42"
       width="2.0742295"
       height="4.4883881"
       x="69.397591"
       y="109.21917"
       ry="0" />
    <rect
       style="fill:#6f82c9;fill-opacity:1;stroke-width:2.11166"
       id="rect43"
       width="2.0742295"
       height="4.4883881"
       x="72.13015"
       y="109.25613"
       ry="0" />
    <rect
       style="fill:#6f82c9;fill-opacity:1;stroke-width:2.11166"
       id="rect44"
       width="2.0742295"
       height="4.4883881"
       x="74.862785"
       y="109.21917"
       ry="0" />
    <rect
       style="fill:#6f82c9;fill-opacity:1;stroke-width:2.11166"
       id="rect45"
       width="2.0742295"
       height="4.4883881"
       x="77.595329"
       y="109.21917"
       ry="0" />
    <rect
       style="fill:#6f82c9;fill-opacity:1;stroke-width:2.11166"
       id="rect46"
       width="2.0742295"
       height="4.4883881"
       x="80.327888"
       y="109.25613"
       ry="0" />
    <rect
       style="fill:#2e3657;fill-opacity:1;stroke-width:2.11166"
       id="rect47"
       width="2.0742295"
       height="4.4883881"
       x="83.060524"
       y="109.21917"
       ry="0" />
    <rect
       style="fill:#2e3657;fill-opacity:1;stroke-width:2.11166"
       id="rect48"
       width="2.0742295"
       height="4.4883881"
       x="85.793083"
       y="109.21917"
       ry="0" />
    <rect
       style="fill:#2e3657;fill-opacity:1;stroke-width:2.11166"
       id="rect49"
       width="2.0742295"
       height="4.4883881"
       x="88.525734"
       y="109.25613"
       ry="0" />
  </g>
</svg>
